<?xml version="1.0" standalone="no"?>
<!DOCTYPE svg PUBLIC "-//W3C//DTD SVG 20010904//EN"
 "http://www.w3.org/TR/2001/REC-SVG-20010904/DTD/svg10.dtd">
<svg version="1.0" xmlns="http://www.w3.org/2000/svg"
 width="455.000000pt" height="455.000000pt" viewBox="0 0 455.000000 455.000000"
 preserveAspectRatio="xMidYMid meet">
<metadata>
Created by potrace 1.14, written by Peter Selinger 2001-2017
</metadata>
<g transform="translate(0.000000,455.000000) scale(0.100000,-0.100000)"
fill="#000000" stroke="none">
<path d="M2267 3739 c-25 -16 -59 -50 -75 -74 -29 -44 -30 -44 -47 -25 -27 30
-60 25 -88 -12 -36 -48 -49 -77 -62 -132 l-11 -48 -84 -32 c-47 -18 -99 -40
-115 -48 l-30 -16 -29 59 c-71 147 -297 278 -481 279 -248 1 -476 -231 -475
-482 1 -187 134 -388 312 -471 37 -18 68 -37 68 -42 0 -6 -14 -44 -32 -85 -30
-72 -58 -161 -58 -188 0 -7 13 -26 29 -43 26 -26 28 -34 20 -62 -6 -22 -5 -37
5 -51 8 -13 10 -29 6 -41 -51 -135 -51 -181 0 -240 22 -26 40 -57 40 -70 0
-13 6 -30 13 -37 8 -7 20 -31 27 -53 39 -124 174 -287 302 -365 32 -19 58 -38
58 -41 0 -12 -87 -76 -175 -128 -150 -89 -305 -235 -305 -288 0 -14 -22 -62
-48 -107 -122 -204 -216 -400 -307 -641 -44 -117 -85 -238 -85 -252 0 -2 761
-3 1690 -3 930 0 1690 4 1690 8 0 4 -25 65 -55 136 -100 234 -267 539 -399
727 -25 37 -46 75 -46 86 0 41 -126 226 -234 342 -23 25 -34 40 -26 34 42 -30
1235 -918 1258 -935 9 -8 12 24 12 155 l0 166 -617 412 c-340 226 -624 417
-631 423 -10 9 -7 19 13 46 30 41 31 46 5 60 -17 9 -24 6 -46 -20 -42 -49 -78
-35 -49 19 8 17 15 32 15 34 0 6 -98 70 -139 91 -32 17 -34 17 -55 -3 -12 -12
-28 -21 -35 -21 -10 0 -450 287 -475 311 -5 5 1 16 14 27 23 19 23 19 4 30
-11 6 -41 10 -66 9 -37 -2 -52 3 -73 23 -14 13 -24 33 -23 44 2 14 -14 30 -67
62 -80 50 -89 52 -80 22 9 -28 -8 -21 -86 34 -37 26 -58 47 -55 55 3 8 -2 17
-12 20 -9 4 -53 30 -97 59 -109 70 -179 103 -198 93 -39 -22 -62 20 -51 91 10
65 55 75 69 17 4 -16 13 -31 20 -33 7 -3 15 -13 17 -22 3 -10 47 -41 99 -70
52 -29 112 -64 134 -77 22 -13 67 -38 100 -55 33 -17 65 -37 70 -44 11 -14
165 -106 177 -106 4 0 13 11 20 23 l13 24 250 -134 c138 -73 278 -148 312
-165 63 -32 89 -66 81 -105 -3 -14 16 -30 79 -66 45 -27 87 -46 93 -42 5 3 10
17 10 31 0 28 24 32 53 9 17 -12 18 -18 7 -50 -9 -28 -9 -39 0 -50 21 -25 37
-17 54 25 9 22 18 40 20 40 5 0 766 -402 967 -511 80 -43 149 -79 153 -79 3 0
6 67 6 148 l0 149 -252 112 c-139 62 -387 171 -550 244 l-297 132 -7 49 c-3
28 -15 74 -25 103 -15 44 -16 55 -5 59 8 3 264 -121 569 -275 306 -155 558
-281 561 -281 3 0 6 46 6 103 l0 103 -112 51 c-62 28 -228 102 -368 163 -680
300 -665 293 -668 320 -4 28 -27 50 -53 50 -12 0 -16 -6 -12 -21 5 -20 4 -20
-28 -6 -75 32 -89 41 -87 54 2 9 -51 35 -160 78 -194 77 -217 83 -232 55 -15
-28 -48 -25 -60 6 -20 53 -7 134 23 134 7 0 36 -21 65 -48 37 -33 70 -53 115
-66 34 -11 91 -32 127 -46 36 -15 77 -30 92 -33 23 -6 25 -4 21 13 -5 18 -3
19 25 9 18 -6 35 -22 42 -39 7 -18 25 -34 48 -43 45 -18 50 -15 28 19 -10 14
-15 28 -13 31 3 2 273 -84 599 -191 327 -108 598 -196 601 -196 4 0 7 43 7 95
l0 95 -27 6 c-84 19 -1198 306 -1205 310 -4 3 -8 22 -8 42 0 37 1 37 52 50 28
6 81 29 117 51 254 151 330 464 172 708 -120 186 -348 262 -571 192 -118 -38
-240 -130 -295 -224 l-30 -51 -92 31 -91 30 13 25 c24 42 19 86 -12 110 -22
17 -37 21 -78 17 -27 -2 -59 -7 -71 -11 -19 -7 -20 -4 -16 57 7 101 -34 124
-121 66z m113 -1666 c0 -10 -6 -13 -16 -9 -9 3 -27 6 -40 6 -24 0 -24 1 -8 25
15 23 17 23 40 8 13 -8 24 -22 24 -30z m-50 -43 c34 -28 34 -29 11 -30 -27 0
-61 26 -61 47 0 20 12 16 50 -17z m845 -630 c3 -5 2 -10 -4 -10 -5 0 -13 5
-16 10 -3 6 -2 10 4 10 5 0 13 -4 16 -10z"/>
<path d="M2539 2204 c-11 -14 -10 -18 6 -30 10 -8 25 -14 32 -14 19 0 16 47
-3 54 -21 8 -20 8 -35 -10z"/>
<path d="M4510 15 c-10 -12 -10 -15 4 -15 9 0 16 7 16 15 0 8 -2 15 -4 15 -2
0 -9 -7 -16 -15z"/>
</g>
</svg>
